<?xml version="1.0" encoding="UTF-8"?>
<svg width="277px" height="16px" viewBox="0 0 277 16" version="1.1" xmlns="http://www.w3.org/2000/svg" xmlns:xlink="http://www.w3.org/1999/xlink">
    <!-- Generator: Sketch 53.2 (72643) - https://sketchapp.com -->
    <title>logo</title>
    <desc>Created with Sketch.</desc>
    <g id="Page-1" stroke="none" stroke-width="1" fill="none" fill-rule="evenodd">
        <g id="01-Landing-Page" transform="translate(-127.000000, -47.000000)" fill="#818B96">
            <g id="logo" transform="translate(127.000000, 47.000000)">
                <g id="Artboard-3">
                    <g>
                        <path d="M115.813537,0.00119135155 C112.204482,0.067395334 109.920114,3.30256328 110.002138,7.81767488 C110.084162,12.4651944 112.557185,15.0692178 116.043204,14.9986002 C119.693271,14.945637 122.076067,11.7148826 121.998145,7.17328945 C121.920222,2.63169625 119.467705,-0.0650126309 115.813537,0.00119135155 M115.952977,0.914806309 C118.278357,0.914806309 120.152605,2.99802496 120.152605,7.50872296 C120.152605,11.9223218 118.417798,14.1026396 116.051406,14.1026396 C113.685014,14.1026396 111.85588,12.1297609 111.85588,7.50872296 C111.85588,2.88768499 113.53327,0.914806309 115.957079,0.914806309" id="Shape" fill-rule="nonzero"></path>
                        <path d="M142.302501,1.01815981 C142.420227,1.71515347 142.588048,2.40251325 142.804625,3.07475787 L145.848749,13.3804479 L149.206701,2.57082324 C149.336715,2.17130751 149.507079,1.49485472 149.614677,1.01815981 L151,1.01815981 L146.18051,16 L144.678622,16 L141.5,5.55811138 L138.325861,16 L136.828457,16 L132,1.01815981 L134.120576,1.01815981 L137.971685,13.3532082 L140.536102,4.68190073 C140.775602,3.94467636 140.775602,3.1491493 140.536102,2.41192494 L140.114677,1 L142.289051,1" id="Shape" fill-rule="nonzero"></path>
                        <polygon id="Shape" fill-rule="nonzero" points="167.945796 1 169 1 169 16 168.129321 16 160.045668 3.60533495 160.045668 15.863595 159 15.863595 159 1 160.638924 1 167.945796 12.2261291"></polygon>
                        <path d="M26.8154486,0.00119135155 C23.1911129,0.067395334 20.927953,3.30256328 21.0017517,7.81767488 C21.0796503,12.4651944 23.5601064,15.0692178 27.0409446,14.9986002 C30.7021797,14.945637 33.0760376,11.7148826 32.998139,7.17328945 C32.9202404,2.63169625 30.4643839,-0.0650126309 26.8154486,0.00119135155 M26.9466463,0.914806309 C29.2713051,0.914806309 31.1490718,2.99802496 31.1490718,7.50872296 C31.1490718,11.9223218 29.4066027,14.1026396 27.0491445,14.1026396 C24.6916863,14.1026396 22.8549189,12.1297609 22.8549189,7.50872296 C22.8549189,2.88768499 24.5276892,0.914806309 26.9548462,0.914806309" id="Shape" fill-rule="nonzero"></path>
                        <path d="M51.2980179,1.01815981 C51.4136088,1.7156033 51.5814685,2.40312284 51.8001416,3.07475787 L54.8352997,13.3804479 L58.2156678,2.57082324 C58.3322322,2.17130751 58.5205286,1.49485472 58.6236432,1.01815981 L60,1.01815981 L55.1670599,16 L53.6831052,16 L50.5134497,5.55811138 L47.3348277,16 L45.8329401,16 L41,1.01815981 L43.1205757,1.01815981 L46.958235,13.3532082 L49.5361019,4.68190073 C49.7639248,3.94282751 49.7639248,3.15099815 49.5361019,2.41192494 L49.0877773,1 L51.2666352,1" id="Shape" fill-rule="nonzero"></path>
                        <polygon id="Shape" fill-rule="nonzero" points="77.9543321 1 79 1 79 16 78.1378574 16 70.054204 3.60533495 70.054204 15.863595 69 15.863595 69 1 70.6389245 1 77.9543321 12.2261291"></polygon>
                        <path d="M99.4823164,1.06851401 C99.8670812,1.06851401 100.546832,1.06851401 101,1 L101,2.00487211 L96.4426739,2.00487211 L96.4426739,16 L94.5573261,16 L94.5573261,2.00487211 L90,2.00487211 L90,1 C90.4574427,1.045676 91.1329188,1.06851401 91.5219588,1.06851401 L99.4823164,1.06851401" id="Shape" fill-rule="nonzero"></path>
                        <path d="M3.35668277,1 L0,1 L0,15.9916193 L3.64009662,15.9916193 C4.99883413,16.051328 6.35289744,15.7913709 7.59903382,15.2315706 C10.09219,14.0118517 11,11.4586342 11,8.40478583 C11,3.53046154 8.41384863,1 3.35668277,1 L3.35668277,1 Z M3.33011272,1.91023796 C6.84178744,1.91023796 8.98067633,3.63969009 8.98067633,8.49125844 C8.98067633,13.0105899 7.147343,15.0540742 3.94565217,15.0540742 C2.13003221,15.0540742 1.97061192,14.7536956 1.97061192,13.3155196 L1.97061192,1.92389153 L3.33011272,1.91023796 Z" id="Shape" fill-rule="nonzero"></path>
                        <path d="M194.33643,1.92620245 C197.846123,1.92620245 199.98748,3.66910558 199.98748,8.50087107 C199.98748,13.017819 198.14378,15.061852 194.953958,15.061852 C193.136914,15.061852 192.976979,14.7607221 192.976979,13.3189488 L192.976979,1.91251473 L194.33643,1.91251473 M194.363086,1 L191,1 L191,15.992617 L194.647415,15.992617 C196.007311,16.0488288 197.361605,15.7834587 198.605816,15.2169795 C201.098142,14.01246 202,11.4482936 202,8.37311901 C202,3.53679095 199.396607,1.00456257 194.363086,1.00456257" id="Shape"></path>
                        <path d="M240.693878,8.15525114 C242.233236,7.69863014 243.571429,6.543379 243.571429,4.46575342 C243.571429,2.1826484 241.887755,1 239.014577,1 L235,1 L235,16 L238.93586,16 C242.911079,16 244,13.8219178 244,11.7488584 C244,9.44292237 242.381924,8.36986301 240.693878,8.15525114 L240.693878,8.15525114 Z M238.485423,1.92237443 C240.693878,1.92237443 241.620991,3.04109589 241.620991,4.74429224 C241.620991,6.44748858 240.676385,7.68493151 238.695335,7.68493151 L238.485423,7.68493151 C236.937318,7.68493151 236.937318,7.46575342 236.937318,6.07305936 L236.937318,1.93150685 L238.485423,1.92237443 Z M239.04519,15.0730594 L238.708455,15.0730594 C237.173469,15.0730594 236.937318,14.8447489 236.937318,13.7031963 L236.937318,8.61187215 L238.323615,8.61187215 C240.072886,8.61187215 242.014577,9.37899543 242.014577,11.9954338 C242.014577,14.2785388 240.584548,15.0730594 239.04519,15.0730594 L239.04519,15.0730594 Z" id="Shape" fill-rule="nonzero"></path>
                        <path d="M217.975589,15.9910501 C219.906397,15.9910501 221.398976,15.3600835 222.245061,14.1473747 C222.77493,13.3117002 223.03745,12.32573 222.99569,11.3281623 L222.99569,1 L221.177693,1 L221.177693,11.5563842 C221.177693,13.4269093 220.08863,14.8096659 217.988605,14.8096659 C215.888581,14.8096659 214.838568,13.4179594 214.838568,11.5563842 L214.838568,1 L213.007555,1 L213.007555,11.3281623 C212.949155,12.354355 213.230669,13.3705483 213.805911,14.2100239 C214.647657,15.3914081 216.053459,16 217.97125,16" id="Shape"></path>
                        <polygon id="Rectangle-path" fill-rule="nonzero" points="275 1 277 1 277 16 275 16"></polygon>
                        <path d="M259.046715,2.36202759 L256.911888,9.11067786 L259.355868,9.11067786 C260.847322,9.11067786 261.102165,8.87222555 260.793012,7.87792442 L259.046715,2.36202759 L259.046715,2.36202759 Z M260.107862,0 L262.702241,8.02189562 C263.750855,11.270246 264.527915,13.6367726 265,14.8515297 L265,15 L263.032283,15 L261.866692,11.2207558 C261.532472,10.1274745 261.377896,10.0059988 259.99924,10.0059988 L257.07482,10.0059988 C256.715534,10.0059988 256.61109,10.0779844 256.527535,10.3434313 L255.044436,15 L254,15 L258.854539,0 L260.107862,0 Z" id="Shape" fill-rule="nonzero"></path>
                    </g>
                </g>
            </g>
        </g>
    </g>
</svg>