<?xml version="1.0" encoding="UTF-8"?>
<svg width="14px" height="14px" viewBox="0 0 14 14" version="1.1" xmlns="http://www.w3.org/2000/svg" xmlns:xlink="http://www.w3.org/1999/xlink">
    <!-- Generator: Sketch 53.2 (72643) - https://sketchapp.com -->
    <title>clsoe</title>
    <desc>Created with Sketch.</desc>
    <g id="Page-1" stroke="none" stroke-width="1" fill="none" fill-rule="evenodd">
        <g id="04-Search-field" transform="translate(-1186.000000, -47.000000)" fill="#FFFFFF">
            <g id="Group-5" transform="translate(127.000000, 33.000000)">
                <g id="clsoe" transform="translate(1059.812320, 14.821780)">
                    <path d="M6.5,7.54949336 L1.23389535,12.825398 C1.09939443,12.9632533 0.913287381,13.0381778 0.720973298,13.0318944 C0.430080055,13.0291937 0.168808344,12.853 0.0568242642,12.5840125 C-0.0551598156,12.315025 0.00371289218,12.0050532 0.206477864,11.7960685 L5.47258251,6.5201639 L0.206477864,1.24425927 C0.0688786531,1.10950805 -0.00590669501,0.923054667 0.000365013668,0.730382697 C-0.00398014467,0.537608248 0.070544704,0.35143743 0.206638312,0.215090558 C0.342731921,0.0787436857 0.528556927,0.00408014977 0.720973298,0.00843339424 C0.913287381,0.00215001421 1.09939443,0.0770745343 1.23389535,0.214929811 L6.5,5.49083443 L11.7661046,0.214929811 C11.9724984,0.00534467631 12.2852473,-0.0576793975 12.5564736,0.0556574029 C12.8276999,0.168994203 13.0030588,0.435982927 12.999635,0.730382697 C13.0059067,0.923054667 12.9311213,1.10950805 12.7935221,1.24425927 L7.52741749,6.5201639 L12.7935221,11.7960685 C13.0612529,12.082901 13.0537638,12.5307508 12.776593,12.8084374 C12.4994223,13.0861239 12.0524044,13.093627 11.7661046,12.825398 L6.5,7.54949336 Z" id="Path-Copy"></path>
                </g>
            </g>
        </g>
    </g>
</svg>