<?xml version="1.0" encoding="UTF-8"?>
<svg width="24px" height="25px" viewBox="0 0 24 25" version="1.1" xmlns="http://www.w3.org/2000/svg" xmlns:xlink="http://www.w3.org/1999/xlink">
    <!-- Generator: Sketch 52.2 (67145) - http://www.bohemiancoding.com/sketch -->
    <title>download icon</title>
    <desc>Created with Sketch.</desc>
    <g id="Page-1" stroke="none" stroke-width="1" fill="none" fill-rule="evenodd">
        <g id="12-Downloads" transform="translate(-813.000000, -557.000000)" fill="#FFFFFF" fill-rule="nonzero">
            <g id="Group-3" transform="translate(794.000000, 557.000000)">
                <g id="Group">
                    <g id="download-icon" transform="translate(19.000000, 0.000000)">
                        <path d="M20.668023,16 L20.668023,21.6683528 L3.33197696,21.6683528 L3.33197696,16 L0,16 L0,23.3345903 C0,24.2542077 0.744853271,25 1.66847133,25 L22.3315287,25 C23.2543191,25 24,24.2550354 24,23.3345903 L24,16 L20.668023,16 Z" id="Shape"></path>
                        <path d="M12.1898058,15.7740744 L7.31204738,9.81149822 C7.31204738,9.81149822 6.56989018,9.10266648 7.37466954,9.10266648 C8.1794489,9.10266648 10.1232745,9.10266648 10.1232745,9.10266648 C10.1232745,9.10266648 10.1232745,8.62583161 10.1232745,7.89046148 C10.1232745,5.79392897 10.1232745,1.97839389 10.1232745,0.422902026 C10.1232745,0.422902026 10.0141089,0 10.6437155,0 C11.2783995,0 14.0583156,0 14.5127493,0 C14.9663369,0 14.9561819,0.356128022 14.9561819,0.356128022 C14.9561819,1.86453565 14.9561819,5.81190659 14.9561819,7.83995294 C14.9561819,8.49742006 14.9561819,8.92374639 14.9561819,8.92374639 C14.9561819,8.92374639 16.5149659,8.92374639 17.4932256,8.92374639 C18.4697928,8.92374639 17.7344055,9.66596513 17.7344055,9.66596513 C17.7344055,9.66596513 13.5844182,15.2390262 13.0055863,15.8237268 C12.5892336,16.2474849 12.1898058,15.7740744 12.1898058,15.7740744 Z" id="Shape"></path>
                    </g>
                </g>
            </g>
        </g>
    </g>
</svg>