<?xml version="1.0" encoding="UTF-8"?>
<svg width="26px" height="23px" viewBox="0 0 512 440" version="1.1" xmlns="http://www.w3.org/2000/svg" xmlns:xlink="http://www.w3.org/1999/xlink">
    <!-- Generator: Sketch 52.2 (67145) - http://www.bohemiancoding.com/sketch -->
    <title>external-link-symbol</title>
    <desc>Created with Sketch.</desc>
    <g id="Symbols" stroke="none" stroke-width="1" fill="none" fill-rule="evenodd">
        <g id="external-link-symbol" fill="#FFFFFF" fill-rule="nonzero">
            <g id="Shape">
                <path d="M392.857,256.354 L374.583,256.354 C371.914,256.354 369.724,257.209 368.02,258.927 C366.302,260.635 365.447,262.824 365.447,265.49 L365.447,356.851 C365.447,369.414 360.977,380.166 352.032,389.113 C343.087,398.058 332.331,402.527 319.768,402.527 L82.224,402.527 C69.662,402.527 58.907,398.058 49.96,389.113 C41.015,380.167 36.543,369.415 36.543,356.851 L36.543,119.31 C36.543,106.748 41.014,95.997 49.96,87.051 C58.907,78.104 69.662,73.633 82.224,73.633 L283.218,73.633 C285.887,73.633 288.077,72.774 289.788,71.063 C291.499,69.35 292.354,67.163 292.354,64.496 L292.354,46.221 C292.354,43.559 291.499,41.368 289.788,39.658 C288.077,37.945 285.887,37.09 283.218,37.09 L82.224,37.09 C59.576,37.09 40.208,45.132 24.122,61.215 C8.042,77.297 0,96.665 0,119.313 L0,356.855 C0,379.502 8.042,398.873 24.123,414.95 C40.209,431.034 59.577,439.08 82.225,439.08 L319.768,439.08 C342.415,439.08 361.785,431.034 377.869,414.95 C393.954,398.873 401.996,379.503 401.996,356.855 L401.996,265.497 C401.996,262.828 401.14,260.638 399.422,258.927 C397.709,257.209 395.519,256.354 392.857,256.354 Z"></path>
                <path d="M506.199,5.971 C502.582,2.354 498.294,0.547 493.349,0.547 L347.171,0.547 C342.223,0.547 337.938,2.354 334.324,5.971 C330.707,9.586 328.896,13.869 328.896,18.818 C328.896,23.767 330.707,28.051 334.324,31.668 L384.571,81.916 L198.424,268.067 C196.518,269.97 195.568,272.16 195.568,274.63 C195.568,277.109 196.521,279.298 198.424,281.201 L230.972,313.745 C232.875,315.648 235.065,316.597 237.539,316.597 C240.013,316.597 242.204,315.649 244.106,313.745 L430.254,127.597 L480.505,177.845 C484.119,181.462 488.403,183.271 493.352,183.271 C498.301,183.271 502.585,181.462 506.203,177.845 C509.82,174.229 511.627,169.947 511.627,164.998 L511.627,18.818 C511.626,13.866 509.813,9.586 506.199,5.971 Z"></path>
            </g>
        </g>
    </g>
</svg>