<?xml version="1.0" encoding="UTF-8"?>
<svg width="36px" height="38px" viewBox="0 0 36 38" version="1.1" xmlns="http://www.w3.org/2000/svg" xmlns:xlink="http://www.w3.org/1999/xlink">
    <!-- Generator: Sketch 52.5 (67469) - http://www.bohemiancoding.com/sketch -->
    <title>Group 16</title>
    <desc>Created with Sketch.</desc>
    <g id="Page-1" stroke="none" stroke-width="1" fill="none" fill-rule="evenodd">
        <g id="mobile-01-copy" transform="translate(-170.000000, -1911.000000)" fill="#FFFFFF">
            <g id="Group-16" transform="translate(170.000000, 1911.000000)">
                <g id="Group-14">
                    <path d="M32.583281,4.95652174 L22.8082967,4.95652174 C22.3586474,4.95652174 21.9937146,4.58643478 21.9937146,4.13043478 C21.9937146,3.67443478 22.3586474,3.30434783 22.8082967,3.30434783 L32.583281,3.30434783 C33.0329302,3.30434783 33.397863,3.67443478 33.397863,4.13043478 C33.397863,4.58643478 33.0329302,4.95652174 32.583281,4.95652174 Z" id="Path"></path>
                    <path d="M29.3249529,8.26086957 C29.1164199,8.26086957 28.9078869,8.17991304 28.7482288,8.01965217 C28.4305418,7.69747826 28.4305418,7.17373913 28.7482288,6.85156522 L31.431462,4.13043478 L28.749858,1.41095652 C28.432171,1.08878261 28.432171,0.565043478 28.749858,0.242869565 C29.0675449,-0.0793043478 29.5839899,-0.0793043478 29.9016769,0.242869565 L33.160005,3.54721739 C33.477692,3.8693913 33.477692,4.39313043 33.160005,4.71530435 L29.9016769,8.01965217 C29.7420189,8.17991304 29.5334859,8.26086957 29.3249529,8.26086957 Z" id="Path"></path>
                    <path d="M11.4041483,4.95652174 L1.62916405,4.95652174 C1.17951477,4.95652174 0.814582024,4.58643478 0.814582024,4.13043478 C0.814582024,3.67443478 1.17951477,3.30434783 1.62916405,3.30434783 L11.4041483,3.30434783 C11.8537976,3.30434783 12.2187304,3.67443478 12.2187304,4.13043478 C12.2187304,4.58643478 11.8537976,4.95652174 11.4041483,4.95652174 Z" id="Path"></path>
                    <path d="M4.88749214,8.26086957 C4.67895915,8.26086957 4.47042615,8.17991304 4.31076807,8.01965217 L1.05243997,4.71530435 C0.734752986,4.39313043 0.734752986,3.8693913 1.05243997,3.54721739 L4.31076807,0.242869565 C4.62845506,-0.0793043478 5.14490006,-0.0793043478 5.46258705,0.242869565 C5.78027404,0.565043478 5.78027404,1.08878261 5.46258705,1.41095652 L2.78098303,4.13043478 L5.46258705,6.84991304 C5.78027404,7.17208696 5.78027404,7.69582609 5.46258705,8.018 C5.30455814,8.17991304 5.09602514,8.26086957 4.88749214,8.26086957 Z" id="Path"></path>
                    <path d="M26.0666248,38 L22.2494934,38 C20.2912382,38 18.4486537,37.2267826 17.0638642,35.8224348 L5.46258705,24.0556522 C4.50952608,23.0891304 4.50952608,21.517913 5.46258705,20.5513913 C6.95001383,19.0446087 9.33836832,18.8744348 11.0164073,20.1515652 L13.8478944,22.3043478 L13.8478944,8.26086957 C13.8478944,6.43852174 15.3092546,4.95652174 17.1062225,4.95652174 C18.9031904,4.95652174 20.3645506,6.43852174 20.3645506,8.26086957 L20.3645506,13.6618261 C20.8435248,13.3793043 21.4006989,13.2173913 21.9937146,13.2173913 C23.4127165,13.2173913 24.6231854,14.1426087 25.0695764,15.428 C25.5876505,15.076087 26.2116204,14.8695652 26.8812068,14.8695652 C28.3002087,14.8695652 29.5106776,15.7947826 29.9570685,17.0801739 C30.4751427,16.7282609 31.0991125,16.5217391 31.7686989,16.5217391 C33.5656669,16.5217391 35.027027,18.0037391 35.027027,19.826087 L35.027027,28.9130435 C35.027027,33.924087 31.0062502,38 26.0666248,38 Z M8.47165305,20.9462609 C7.7939208,20.9462609 7.11944689,21.2089565 6.61440603,21.7194783 C6.29671904,22.0416522 6.29671904,22.5653913 6.61440603,22.8875652 L18.2156832,34.6543478 C19.2925607,35.7464348 20.7245959,36.3478261 22.2494934,36.3478261 L26.0666248,36.3478261 C30.1085808,36.3478261 33.397863,33.012087 33.397863,28.9130435 L33.397863,19.826087 C33.397863,18.9157391 32.6679975,18.173913 31.7686989,18.173913 C30.8694004,18.173913 30.1395349,18.9157391 30.1395349,19.826087 L30.1395349,20.6521739 C30.1395349,21.1081739 29.7746021,21.4782609 29.3249529,21.4782609 C28.8753036,21.4782609 28.5103708,21.1081739 28.5103708,20.6521739 L28.5103708,18.173913 C28.5103708,17.2635652 27.7805053,16.5217391 26.8812068,16.5217391 C25.9819082,16.5217391 25.2520427,17.2635652 25.2520427,18.173913 L25.2520427,20.6521739 C25.2520427,21.1081739 24.88711,21.4782609 24.4374607,21.4782609 C23.9878114,21.4782609 23.6228787,21.1081739 23.6228787,20.6521739 L23.6228787,16.5217391 C23.6228787,15.6113913 22.8930132,14.8695652 21.9937146,14.8695652 C21.0944161,14.8695652 20.3645506,15.6113913 20.3645506,16.5217391 L20.3645506,20.6521739 C20.3645506,21.1081739 19.9996179,21.4782609 19.5499686,21.4782609 C19.1003193,21.4782609 18.7353865,21.1081739 18.7353865,20.6521739 L18.7353865,8.26086957 C18.7353865,7.35052174 18.0055211,6.60869565 17.1062225,6.60869565 C16.2069239,6.60869565 15.4770585,7.35052174 15.4770585,8.26086957 L15.4770585,23.9565217 C15.4770585,24.2687826 15.3027379,24.5546087 15.0274092,24.6950435 C14.7537096,24.8338261 14.4213602,24.8057391 14.1737272,24.6173913 L10.040538,21.4733043 C9.57622627,21.1197391 9.0223105,20.9462609 8.47165305,20.9462609 Z" id="Shape" fill-rule="nonzero"></path>
                </g>
            </g>
        </g>
    </g>
</svg>