<?xml version="1.0" encoding="UTF-8"?>
<svg width="19px" height="24px" viewBox="0 0 19 24" version="1.1" xmlns="http://www.w3.org/2000/svg" xmlns:xlink="http://www.w3.org/1999/xlink">
    <!-- Generator: Sketch 53.2 (72643) - https://sketchapp.com -->
    <title>login</title>
    <desc>Created with Sketch.</desc>
    <g id="Page-1" stroke="none" stroke-width="1" fill="none" fill-rule="evenodd">
        <g id="01-Landing-Page" transform="translate(-1255.000000, -43.000000)" fill="#FFFFFF">
            <g id="login" transform="translate(1255.000000, 43.000000)">
                <g id="Group-26">
                    <path d="M10,12 C13.3137085,12 16,9.3137085 16,6 C16,2.6862915 13.3137085,2.02906125e-16 10,0 C6.6862915,-2.02906125e-16 4,2.6862915 4,6 C4.00445936,9.31185961 6.68814039,11.9955406 10,12 L10,12 Z M10,1.78714286 C12.3260468,1.78714292 14.2117294,3.67268346 14.2119046,5.99873023 C14.2120799,8.324777 12.3266815,10.2106017 10.0006348,10.2109523 C7.67458802,10.211303 5.7886212,8.32604672 5.78809524,6 C5.79150639,3.67547501 7.67547399,1.79214641 10,1.78952381 L10,1.78714286 Z" id="Shape" fill-rule="nonzero"></path>
                    <path d="M1.5042766,24 C1.5042766,19.3589296 5.09108002,15.5832935 9.50003433,15.5832935 C13.9089887,15.5832935 17.4957921,19.3589296 17.4957921,24 L19,24 C18.9998471,19.9554584 16.6852566,16.3092399 13.1354626,14.7614827 C9.58566874,13.2137254 5.49969779,14.0692141 2.78273326,16.9290564 C0.995264567,18.8002331 -0.00674349132,21.346405 0,24 L1.5042766,24 Z" id="Shape" fill-rule="nonzero"></path>
                </g>
            </g>
        </g>
    </g>
</svg>