<?xml version="1.0" encoding="UTF-8"?>
<svg width="24px" height="16px" viewBox="0 0 24 16" version="1.1" xmlns="http://www.w3.org/2000/svg" xmlns:xlink="http://www.w3.org/1999/xlink">
    <!-- Generator: Sketch 52.2 (67145) - http://www.bohemiancoding.com/sketch -->
    <title>Shape 4</title>
    <desc>Created with Sketch.</desc>
    <g id="Symbols" stroke="none" stroke-width="1" fill="none" fill-rule="evenodd">
        <g id="footer" transform="translate(-995.000000, -237.000000)" fill="#FFFFFF">
            <g id="Group-10">
                <g id="Shape-4" transform="translate(995.000000, 237.000000)">
                    <path d="M2.00000001,1.11022305e-15 C0.901350018,1.11022305e-15 0,0.90135502 0,1.99999984 L0,14 C0,15.098645 0.901350018,16 2.00000001,16 L22,16 C23.09865,16 24,15.098645 24,14 L24,1.99999984 C24,0.90135502 23.09865,0 22,0 L2.00000001,1.11022305e-15 Z M2.00000001,1.00000002 L22,1.00000002 C22.077,1.00000002 22.15095,1.01040002 22.22265,1.02635002 L12.6679501,9.62693986 C12.2893001,9.96801487 11.7155501,9.97121487 11.3330001,9.62993986 L1.77735001,1.02642002 C1.84905001,1.01041502 1.92300001,1.00000002 2.00000001,1.00000002 Z M1.04590002,1.71386484 L10.6650501,10.3730449 C11.4231001,11.0513049 12.5820501,11.0494699 13.3369001,10.3700449 L22.9541,1.71379484 C22.9806,1.80485484 23.0001,1.89941984 23.0001,1.99992984 L23.0001,13.99993 C23.0001,14.558135 22.5583,14.99993 22.0001,14.99993 L2.00010001,14.99993 C1.44190001,14.99993 1.00010002,14.558135 1.00010002,13.99993 L1.00010002,1.99992984 C1.00010002,1.89941984 1.01910002,1.80485484 1.04610002,1.71379484 L1.04590002,1.71386484 Z" id="Shape"></path>
                </g>
            </g>
        </g>
    </g>
</svg>