<?xml version="1.0" encoding="UTF-8"?>
<svg width="52px" height="74px" viewBox="0 0 52 74" version="1.1" xmlns="http://www.w3.org/2000/svg" xmlns:xlink="http://www.w3.org/1999/xlink">
    <!-- Generator: Sketch 52.2 (67145) - http://www.bohemiancoding.com/sketch -->
    <title>Shape</title>
    <desc>Created with Sketch.</desc>
    <g id="Page-1" stroke="none" stroke-width="1" fill="none" fill-rule="evenodd">
        <g id="07-Contact-page" transform="translate(-933.000000, -1257.000000)" fill="#0D1B2A" fill-rule="nonzero">
            <g id="Pin-on-map" transform="translate(933.000000, 1257.000000)">
                <path d="M26,0 C11.6411102,0 0,11.6269802 0,25.9682887 C0,27.0661799 0.0881821382,28.1361857 0.222591245,29.1968964 C2.4442319,49.4815982 24.311724,72.8605093 24.311724,72.8605093 C24.7013731,73.2960087 25.0769863,73.564653 25.4387161,73.7590887 L25.457329,73.7683838 L26.1855181,74 L26.9137073,73.7683838 L26.9323202,73.7590887 C27.29405,73.5645006 27.6698157,73.2819898 28.0593123,72.8605093 C28.0593123,72.8605093 49.6114541,49.4398463 51.7819857,29.1507256 C51.9118179,28.1038813 52,27.0430183 52,25.9637173 C51.9952705,11.6269802 40.3588898,0 26,0 Z M26,42.6722347 C16.7799319,42.6722347 9.27590658,35.1773178 9.27590658,25.9684411 C9.27590658,16.7595644 16.7799319,9.26464744 26,9.26464744 C35.2200681,9.26464744 42.7195165,16.7595644 42.7195165,25.9684411 C42.7195165,35.1773178 35.2200681,42.6722347 26,42.6722347 Z" id="Shape"></path>
            </g>
        </g>
    </g>
</svg>