<?xml version="1.0" encoding="UTF-8"?>
<svg width="28px" height="28px" viewBox="0 0 28 28" version="1.1" xmlns="http://www.w3.org/2000/svg" xmlns:xlink="http://www.w3.org/1999/xlink">
    <!-- Generator: Sketch 52.2 (67145) - http://www.bohemiancoding.com/sketch -->
    <title>Pdf icon</title>
    <desc>Created with Sketch.</desc>
    <g id="Page-1" stroke="none" stroke-width="1" fill="none" fill-rule="evenodd">
        <g id="12-Downloads" transform="translate(-518.000000, -436.000000)" fill="#FFFFFF" fill-rule="nonzero">
            <g id="Image-video" transform="translate(508.000000, 427.000000)">
                <g id="Pdf-icon" transform="translate(10.000000, 9.000000)">
                    <path d="M13.4964912,7.36842105 C13.6520468,7.36842105 13.6520468,7.36842105 13.4964912,7.36842105 C13.6520468,6.85583524 13.8076023,6.59954233 13.8076023,6.21510297 L13.8076023,5.95881007 C13.9631579,5.3180778 13.9631579,4.80549199 13.8076023,4.67734554 C13.8076023,4.67734554 13.8076023,4.67734554 13.8076023,4.54919908 L13.6520468,4.42105263 C13.6520468,4.42105263 13.6520468,4.54919908 13.4964912,4.54919908 C13.1853801,5.3180778 13.1853801,6.21510297 13.4964912,7.36842105 Z M8.72421053,19.1578947 C8.40982456,19.3130194 8.0954386,19.468144 7.93824561,19.6232687 C6.83789474,20.5540166 6.05192982,21.6398284 5.89473684,22.1052632 C6.83789474,21.9501385 7.78105263,21.0193906 8.72421053,19.1578947 C8.88140351,19.1578947 8.88140351,19.1578947 8.72421053,19.1578947 C8.88140351,19.1578947 8.72421053,19.1578947 8.72421053,19.1578947 Z M21.9712919,17.1929825 C21.8373206,16.9473684 21.3014354,16.2105263 19.4258373,16.2105263 C19.291866,16.2105263 19.291866,16.2105263 19.1578947,16.2105263 C19.1578947,16.2105263 19.1578947,16.2105263 19.1578947,16.4561404 C20.0956938,17.1929825 21.0334928,17.6842105 21.7033493,17.6842105 C21.8373206,17.6842105 21.8373206,17.6842105 21.9712919,17.6842105 L22.1052632,17.6842105 C22.1052632,17.6842105 22.1052632,17.6842105 22.1052632,17.4385965 C22.1052632,17.4385965 21.9712919,17.4385965 21.9712919,17.1929825 Z M24.8888889,0 L3.11111111,0 C1.4,0 0,1.4 0,3.11111111 L0,24.8888889 C0,26.6 1.4,28 3.11111111,28 L24.8888889,28 C26.6,28 28,26.6 28,24.8888889 L28,3.11111111 C28,1.4 26.6,0 24.8888889,0 Z M22.9658947,18.1714771 C22.6593083,18.3259762 22.1995789,18.4804754 21.5865263,18.4804754 C20.3604211,18.4804754 18.5212632,18.1714771 16.9886316,17.3989813 C14.3831579,17.7079796 12.3907368,18.0169173 10.8581053,18.6349139 C10.7048421,18.6349139 10.7048421,18.6349139 10.5515789,18.7894131 C8.71242105,22.0339559 7.17978947,23.5789474 5.95368421,23.5789474 C5.64715789,23.5789474 5.49389474,23.5789474 5.34063158,23.4243876 L4.57431579,22.9609508 L4.57431579,22.8064516 C4.42105263,22.4973927 4.42105263,22.3429542 4.42105263,22.0339559 C4.57431579,21.2614601 5.49389474,19.8709677 7.33305263,18.7894131 C7.63957895,18.6349139 8.09936842,18.3259762 8.71242105,18.0169173 C9.17221053,17.2444216 9.632,16.3174267 10.2450526,15.2359932 C11.0113684,13.6910017 11.4711579,12.1460102 11.9309474,10.7555178 C11.3178947,8.90152801 11.0113684,7.82003396 11.6244211,5.65704584 C11.7776842,5.03904924 12.2374737,4.42105263 12.8505263,4.42105263 L13.1570526,4.42105263 C13.4635789,4.42105263 13.7701053,4.57555178 14.0766316,4.73005093 C15.1495338,5.81154499 14.6896842,8.28353141 14.0766316,10.2920204 C14.0766316,10.4465195 14.0766316,10.4465195 14.0766316,10.4465195 C14.6896842,12.1460102 15.6092632,13.5365025 16.5288421,14.4634975 C16.9886316,14.7724958 17.2951579,15.0814941 17.9082105,15.3904924 C18.6745263,15.3904924 19.2875789,15.2359932 19.9006316,15.2359932 C21.7397895,15.2359932 22.9658947,15.5449915 23.4256241,16.3174873 C23.5789474,16.6265462 23.5789474,16.9354839 23.5789474,17.2444822 C23.4256842,17.3989813 23.2724211,17.8624788 22.9658947,18.1714771 Z M13.0105263,11.7894737 C12.6736842,12.9684211 12,14.3157895 11.3263158,15.8315789 C10.9894737,16.5051971 10.6526316,17.0105263 10.3157895,17.6842105 L10.4842105,17.6842105 L10.6526316,17.6842105 C12.8421053,16.8421053 14.8631579,16.3368421 16.2105263,16.1684211 C15.8736182,16 15.7052632,15.8315789 15.5368421,15.6631579 C14.6947368,14.6526316 13.6842105,13.3052632 13.0105263,11.7894737 Z" id="Shape"></path>
                </g>
            </g>
        </g>
    </g>
</svg>