<?xml version="1.0" encoding="UTF-8"?>
<svg width="22px" height="22px" viewBox="0 0 22 22" version="1.1" xmlns="http://www.w3.org/2000/svg" xmlns:xlink="http://www.w3.org/1999/xlink">
    <!-- Generator: Sketch 52.2 (67145) - http://www.bohemiancoding.com/sketch -->
    <title>Shape 3</title>
    <desc>Created with Sketch.</desc>
    <g id="Symbols" stroke="none" stroke-width="1" fill="none" fill-rule="evenodd">
        <g id="footer" transform="translate(-996.000000, -147.000000)" fill="#FFFFFF" fill-rule="nonzero">
            <g id="Group-10">
                <g id="Shape-3" transform="translate(996.000000, 147.000000)">
                    <path d="M20.7958812,15.9929981 L20.7035528,15.9269871 C20.3694118,15.6981489 18.8569841,14.7167852 17.8589576,14.0654766 L17.0367949,13.5285871 C16.0836531,12.9152601 14.8175264,13.1571149 14.157027,14.0786788 L14.0427156,14.223903 C13.682195,14.6639764 13.3084847,15.1480572 12.7237379,15.1788623 C11.8839888,15.2360719 10.6661327,14.4615427 9.1097391,12.8992821 C7.55334545,11.3370215 6.77514863,10.1180182 6.82351114,9.2730773 C6.85428729,8.67897822 7.32472265,8.30491583 7.77757165,7.95285711 L7.91386601,7.82963656 C8.83155333,7.16582501 9.06922608,5.89897701 8.45464686,4.94715579 L7.92705579,4.13302001 C7.27196355,3.12965266 6.28712689,1.61139943 6.0541075,1.27694365 L5.99255521,1.18452823 C5.68039716,0.718050431 5.11323676,-0.135691963 3.89977731,0.0183337263 C1.60679299,0.711702234 0.0281638335,2.81377351 0,5.21119983 C1.56198334e-15,8.21690115 2.19829611,12.1423559 6.02333135,15.9709944 C9.84836659,19.799633 13.7701269,22 16.7729994,22 C19.1787302,21.9801973 21.2909859,20.3940671 21.9829611,18.0877475 C22.1324453,16.8907478 21.26192,16.3054502 20.7958812,15.9929981 Z M21.1036427,17.9645269 C20.4853,19.8369137 18.7431262,21.1062694 16.7729994,21.1198532 C13.9987497,21.1198532 10.3100088,19.0163024 6.66083723,15.3504909 C3.01166568,11.6846795 0.879318446,7.98806298 0.879318446,5.21119983 C0.89153795,3.23877195 2.16021201,1.4942515 4.03167507,0.876476854 L4.20753876,0.876476854 C4.6955605,0.876476854 4.96375263,1.21093264 5.27151408,1.67741044 L5.33746297,1.77422659 C5.56168917,2.0998809 6.54652583,3.6137334 7.19722148,4.61710074 L7.72920914,5.4268358 C8.09013961,6.00280641 7.930789,6.76140743 7.36868858,7.14312205 L7.23239422,7.25754114 C6.71359633,7.6668094 6.00134839,8.23450408 5.94419269,9.2202685 C5.87824381,10.3556579 6.68282019,11.7198854 8.47662982,13.5153849 C10.2704394,15.3108843 11.6289864,16.1118179 12.7677038,16.0502076 C13.7525405,15.9929981 14.3197009,15.2800792 14.7329806,14.7607926 L14.8428954,14.6243698 C15.2242507,14.0617399 15.9821378,13.9022392 16.5575663,14.2635096 L17.3797291,14.8003992 C18.3733589,15.4517078 19.8813901,16.4330715 20.2067379,16.6531082 L20.3078595,16.7191192 C20.8178642,17.0667772 21.1783848,17.3616264 21.1036427,17.9645269 Z" id="Shape"></path>
                </g>
            </g>
        </g>
    </g>
</svg>