<?xml version="1.0" encoding="UTF-8"?>
<svg width="21px" height="28px" viewBox="0 0 21 28" version="1.1" xmlns="http://www.w3.org/2000/svg" xmlns:xlink="http://www.w3.org/1999/xlink">
    <!-- Generator: Sketch 52.2 (67145) - http://www.bohemiancoding.com/sketch -->
    <title>Shape 2</title>
    <desc>Created with Sketch.</desc>
    <g id="Symbols" stroke="none" stroke-width="1" fill="none" fill-rule="evenodd">
        <g id="footer" transform="translate(-997.000000, -188.000000)" fill="#FFFFFF" fill-rule="nonzero">
            <g id="Group-10">
                <g id="Shape-2" transform="translate(997.000000, 188.000000)">
                    <path d="M10.5,0 C4.70957586,0 0,4.67097334 0,10.4139357 C0,12.4506142 0.506425862,13.911675 1.57275517,15.4750222 L9.90034138,27.684464 C10.0350712,27.8817953 10.2597126,28 10.5,28 C10.7402874,28 10.9649288,27.8817953 11.0996586,27.684464 L19.4272448,15.4750222 C20.4935741,13.9116391 21,12.4506142 21,10.4139357 C21,4.67097334 16.2904241,0 10.5,0 Z M10.5,1.43640492 C15.5077034,1.43640492 19.5517241,5.44727838 19.5517241,10.4139357 C19.5517241,12.2370926 19.1903793,13.2670883 18.2279276,14.6782484 L10.5,26.012381 L2.77207241,14.6782484 C1.8096569,13.2671242 1.44827586,12.2370926 1.44827586,10.4139357 C1.44827586,5.44727838 5.49229655,1.43640492 10.5,1.43640492 Z M10.5,5.02741722 C7.70906379,5.02741722 5.43103448,7.28677443 5.43103448,10.0548344 C5.43103448,12.8228585 7.70906379,15.0822373 10.5,15.0822373 C13.2909362,15.0822373 15.5689655,12.8228585 15.5689655,10.0548344 C15.5689655,7.28677443 13.2909362,5.02741722 10.5,5.02741722 Z M10.5,6.46382214 C12.5082155,6.46382214 14.1206897,8.06307947 14.1206897,10.0548344 C14.1206897,12.0465535 12.5082155,13.6458324 10.5,13.6458324 C8.49178448,13.6458324 6.87931034,12.0465535 6.87931034,10.0548344 C6.87931034,8.06307947 8.49178448,6.46382214 10.5,6.46382214 Z" id="Shape"></path>
                </g>
            </g>
        </g>
    </g>
</svg>