<?xml version="1.0" encoding="UTF-8"?>
<svg width="44px" height="44px" viewBox="0 0 44 44" version="1.1" xmlns="http://www.w3.org/2000/svg" xmlns:xlink="http://www.w3.org/1999/xlink">
    <!-- Generator: Sketch 52.2 (67145) - http://www.bohemiancoding.com/sketch -->
    <title>Shape</title>
    <desc>Created with Sketch.</desc>
    <g id="Symbols" stroke="none" stroke-width="1" fill="none" fill-rule="evenodd">
        <g id="play-button-(1)" fill="#FFFFFF">
            <g id="Shape">
                <path d="M22,0 C9.84989844,0 0,9.84972656 0,22 C0,34.1502734 9.84989844,44 22,44 C34.1501016,44 44,34.1502734 44,22 C44,9.84972656 34.1501016,0 22,0 Z M29.60375,23.1661719 L18.60375,30.0411719 C18.3811719,30.1801328 18.1280859,30.25 17.875,30.25 C17.6457188,30.25 17.4160938,30.1929375 17.2082969,30.0774375 C16.7712187,29.8350937 16.5,29.3751562 16.5,28.875 L16.5,15.125 C16.5,14.6248437 16.7712187,14.1649062 17.2082969,13.9225625 C17.645375,13.6788437 18.1798203,13.693625 18.60375,13.9588281 L29.60375,20.8338281 C30.0055937,21.085625 30.25,21.5260547 30.25,22 C30.25,22.4739453 30.0055937,22.9144609 29.60375,23.1661719 Z"></path>
            </g>
        </g>
    </g>
</svg>