<?xml version="1.0" encoding="UTF-8"?>
<svg width="21px" height="21px" viewBox="0 0 21 21" version="1.1" xmlns="http://www.w3.org/2000/svg" xmlns:xlink="http://www.w3.org/1999/xlink">
    <!-- Generator: Sketch 53.2 (72643) - https://sketchapp.com -->
    <title>search</title>
    <desc>Created with Sketch.</desc>
    <g id="Page-1" stroke="none" stroke-width="1" fill="none" fill-rule="evenodd">
        <g id="01-Landing-Page" transform="translate(-1178.000000, -45.000000)" fill="#818B96">
            <g id="search" transform="translate(1178.000000, 45.000000)">
                <g id="Group-3">
                    <path d="M20.7428571,19.5085714 L15.6942857,14.46 C16.9457143,12.9342857 17.7,10.98 17.7,8.85 C17.7,3.96428571 13.7357143,0 8.85,0 C3.96,0 0,3.96428571 0,8.85 C0,13.7357143 3.96,17.7 8.85,17.7 C10.98,17.7 12.93,16.95 14.4557143,15.6985714 L19.5042857,20.7428571 C19.8471429,21.0857143 20.4,21.0857143 20.7428571,20.7428571 C21.0857143,20.4042857 21.0857143,19.8471429 20.7428571,19.5085714 Z M8.85,15.9385714 C4.93714286,15.9385714 1.75714286,12.7585714 1.75714286,8.85 C1.75714286,4.94142857 4.93714286,1.75714286 8.85,1.75714286 C12.7585714,1.75714286 15.9428571,4.94142857 15.9428571,8.85 C15.9428571,12.7585714 12.7585714,15.9385714 8.85,15.9385714 Z" id="Shape" fill-rule="nonzero"></path>
                </g>
            </g>
        </g>
    </g>
</svg>