<?xml version="1.0" encoding="UTF-8"?>
<svg width="9px" height="18px" viewBox="0 0 9 18" version="1.1" xmlns="http://www.w3.org/2000/svg" xmlns:xlink="http://www.w3.org/1999/xlink">
    <!-- Generator: Sketch 50.2 (55047) - http://www.bohemiancoding.com/sketch -->
    <title>Shape Copy</title>
    <desc>Created with Sketch.</desc>
    <defs></defs>
    <g id="Learning-resources" stroke="none" stroke-width="1" fill="none" fill-rule="evenodd">
        <g id="T3---Resource-details-V1" transform="translate(-387.000000, -3059.000000)" fill="#64615B" fill-rule="nonzero">
            <path d="M399.854609,3064.2327 C399.755112,3064.10743 399.61101,3064.02833 399.454455,3064.01307 C399.2979,3063.9978 399.141919,3064.04763 399.021313,3064.15145 L391.501902,3070.59892 L383.998287,3064.15145 C383.746368,3063.92707 383.365332,3063.95526 383.147219,3064.21442 C382.929107,3064.47357 382.956513,3064.86555 383.208433,3065.08993 L391.106975,3071.86241 C391.328274,3072.04586 391.643935,3072.04586 391.865235,3071.86241 L399.79537,3065.08993 C399.914266,3064.98468 399.987395,3064.83496 399.998517,3064.674 C400.00964,3064.51305 399.957836,3064.35419 399.854609,3064.2327 Z" id="Shape-Copy" transform="translate(391.500000, 3068.000000) rotate(-90.000000) translate(-391.500000, -3068.000000) "></path>
        </g>
    </g>
</svg>