<?xml version="1.0" encoding="UTF-8"?>
<svg width="35px" height="36px" viewBox="0 0 47 48" version="1.1" xmlns="http://www.w3.org/2000/svg" xmlns:xlink="http://www.w3.org/1999/xlink">
    <!-- Generator: Sketch 52.2 (67145) - http://www.bohemiancoding.com/sketch -->
    <title>bank</title>
    <desc>Created with Sketch.</desc>
    <g id="Symbols" stroke="none" stroke-width="1" fill="none" fill-rule="evenodd">
        <g id="bank" fill="#887C68" fill-rule="nonzero">
            <g id="Shape">
                <path d="M3.33043009,19.9676632 L4.40962348,19.9676632 C4.40226838,20.0244592 4.39736498,20.0819287 4.39736498,20.1407451 L4.39736498,41.306119 L3.66386117,41.306119 C2.92545397,41.306119 2.32657073,41.9093239 2.32657073,42.6530595 C2.32657073,43.3967951 2.92545397,44 3.66386117,44 L5.73465543,44 L10.8103413,44 L15.8862501,44 L20.9621588,44 L26.0378447,44 L31.1137535,44 L36.1896623,44 L41.2653481,44 L43.3361424,44 C44.0745496,44 44.6734328,43.3967951 44.6734328,42.6530595 C44.6734328,41.9093239 44.0745496,41.306119 43.3361424,41.306119 L42.6026386,41.306119 L42.6026386,20.1407451 C42.6026386,20.0819287 42.5977352,20.0244592 42.5903801,19.9676632 L43.6695735,19.9676632 C44.6772218,19.9676632 45.56652,19.3200093 45.8821205,18.3560489 C46.1977211,17.3920885 45.8654044,16.338781 45.0552293,15.7349027 L24.2955782,0.264168704 C23.8232917,-0.0880562348 23.1771576,-0.0880562348 22.7048712,0.264168704 L1.94455142,15.7349027 C1.13459918,16.3385566 0.802282503,17.3920885 1.11788305,18.3560489 C1.43348359,19.3200093 2.32255886,19.9676632 3.33043009,19.9676632 Z M24.7007772,41.306119 L22.2996722,41.306119 L22.2996722,20.1407451 C22.2996722,20.0819287 22.2947688,20.0244592 22.2874137,19.9676632 L24.7132585,19.9676632 C24.7059034,20.0244592 24.701,20.0819287 24.701,20.1407451 L24.701,41.306119 L24.7007772,41.306119 Z M14.5489596,41.306119 L12.1474089,41.306119 L12.1474089,20.1407451 C12.1474089,20.0819287 12.1425055,20.0244592 12.1351504,19.9676632 L14.5612181,19.9676632 C14.553863,20.0244592 14.5489596,20.0819287 14.5489596,20.1407451 L14.5489596,41.306119 Z M7.07172299,41.306119 L7.07172299,21.4876856 L9.47282798,21.4876856 L9.47282798,41.306119 L7.07172299,41.306119 Z M17.2235405,41.306119 L17.2235405,21.4876856 L19.6248684,21.4876856 L19.6248684,41.306119 L17.2235405,41.306119 Z M27.3751352,41.306119 L27.3751352,21.4876856 L29.776463,21.4876856 L29.776463,41.306119 L27.3751352,41.306119 Z M37.5271756,41.306119 L37.5271756,21.4876856 L39.9282806,21.4876856 L39.9282806,41.306119 L37.5271756,41.306119 Z M34.8525947,20.1407451 L34.8525947,41.306119 L32.4512668,41.306119 L32.4512668,20.1407451 C32.4512668,20.0819287 32.4463634,20.0244592 32.4390083,19.9676632 L34.8650761,19.9676632 C34.857721,20.0244592 34.8525947,20.0819287 34.8525947,20.1407451 Z M23.5001132,3.02247834 L42.6238123,17.2735577 L4.3764141,17.2735577 L23.5001132,3.02247834 Z"></path>
                <path d="M45.6732221,45 L1.32677786,45 C0.594175351,45 0,45.67175 0,46.5 C0,47.32825 0.594175351,48 1.32677786,48 L45.6732221,48 C46.4058246,48 47,47.32825 47,46.5 C47,45.67175 46.4060458,45 45.6732221,45 Z"></path>
            </g>
        </g>
    </g>
</svg>