<?xml version="1.0" encoding="UTF-8"?>
<svg width="34px" height="29px" viewBox="0 0 34 29" version="1.1" xmlns="http://www.w3.org/2000/svg" xmlns:xlink="http://www.w3.org/1999/xlink">
    <!-- Generator: Sketch 52.2 (67145) - http://www.bohemiancoding.com/sketch -->
    <title>Shape</title>
    <desc>Created with Sketch.</desc>
    <g id="Page-1" stroke="none" stroke-width="1" fill="none" fill-rule="evenodd">
        <g id="05-Content-pages" transform="translate(-564.000000, -2643.000000)" fill="#887C68" fill-rule="nonzero">
            <g id="Bookstore" transform="translate(564.000000, 2643.000000)">
                <path d="M0,25.1475686 C0,27.2718793 1.73576039,29 3.86936692,29 L4.72929276,29 L28.3391494,29 L30.0587873,29 L31.850442,29 L31.850442,27.2878461 L30.0587873,27.2878461 L30.0587873,23.0072911 L31.850442,23.0072911 L31.850442,22.2581706 L32.7101968,22.2581706 L34,22.2581706 L34,20.5460167 L32.7101968,20.5460167 L32.7101968,16.2657598 L34,16.2657598 L34,14.5536485 L32.7101968,14.5536485 L32.6027274,14.5536485 L32.6027274,13.9833138 L32.6027274,13.1271942 L32.6027274,13.0904493 L30.4795556,9.13101894 L32.7102395,9.13101894 L32.7102395,6.82868889 L27.0989112,0 L7.30167187,0 L2.19625778,8.00925415 C1.32311744,8.71656291 0.752499258,9.78157099 0.752499258,10.9869593 C0.752499258,13.0980282 2.46798887,14.8143121 4.58397607,14.8353032 C3.1602745,15.4046586 2.1496863,16.7873851 2.1496863,18.4060799 C2.1496863,19.581408 2.69229318,20.6221039 3.52852701,21.3293276 C1.55644524,21.5042813 0,23.1394538 0,25.1475686 Z M2.47209435,10.9869593 C2.47209435,10.1886184 2.91809427,9.49902217 3.57056536,9.13114667 L29.1989042,9.13114667 L29.1989042,13.1272794 L4.62182341,13.1272794 C3.43658149,13.1271942 2.47209435,12.1668008 2.47209435,10.9869593 Z M6.01909599,16.265845 L6.8789363,16.265845 L30.9904306,16.265845 L30.9904306,20.5460593 L6.8789363,20.5460593 L6.01909599,20.5460593 C4.83385406,20.5460593 3.86936692,19.5863045 3.86936692,18.4060799 C3.86940969,17.2255146 4.83385406,16.265845 6.01909599,16.265845 Z M3.86940969,23.0072911 L4.72933553,23.0072911 L28.3391922,23.0072911 L28.3391922,27.2878036 L4.72929276,27.2878036 L3.86936692,27.2878036 C2.68421053,27.2878036 1.71976615,26.3280487 1.71976615,25.1475261 C1.71976615,23.9670034 2.68425329,23.0072911 3.86940969,23.0072911 Z" id="Shape"></path>
            </g>
        </g>
    </g>
</svg>