<?xml version="1.0" encoding="UTF-8"?>
<svg width="33px" height="33px" viewBox="0 0 33 33" version="1.1" xmlns="http://www.w3.org/2000/svg" xmlns:xlink="http://www.w3.org/1999/xlink">
    <!-- Generator: Sketch 52.2 (67145) - http://www.bohemiancoding.com/sketch -->
    <title>camera-shutter</title>
    <desc>Created with Sketch.</desc>
    <g id="Symbols" stroke="none" stroke-width="1" fill="none" fill-rule="evenodd">
        <g id="camera-shutter" fill="#887C68" fill-rule="nonzero">
            <g id="Shape">
                <path d="M11,21 L2.7445084,7 C1.01239281,9.6167484 0,12.7682007 0,16.1586194 C0,17.8432667 0.250675438,19.4698227 0.715200282,21 L11,21 Z"></path>
                <path d="M15,10 L32,10 C29.8166453,5.01794215 25.5871206,1.26693519 20.478521,0 L15,10 Z"></path>
                <path d="M9.44448143,15 L18,0.0825525334 C17.4687337,0.0286545984 16.9314756,0 16.3862285,0 C11.458367,0 7.03048172,2.22414264 4,5.74183571 L9.44448143,15 Z"></path>
                <path d="M12.6921427,32.760803 L18,23 L1,23 C3.22984031,28.1128355 7.70505283,31.9143589 13.0878684,33 L12.6921427,32.760803 Z"></path>
                <path d="M22,11 L30.0880647,25 C31.9204312,22.4045738 33,19.2459589 33,15.8385378 C33,14.1521859 32.7344583,12.5269104 32.2459132,11 L22,11 Z"></path>
                <path d="M23.5472749,18 L15,32.9294649 C15.4915999,32.9726077 15.9886697,33 16.4912092,33 C21.4366087,33 25.8945106,30.8695672 29,27.477721 L23.5472749,18 Z"></path>
            </g>
        </g>
    </g>
</svg>