<?xml version="1.0" encoding="UTF-8"?>
<svg width="37px" height="35px" viewBox="0 0 189 180" version="1.1" xmlns="http://www.w3.org/2000/svg" xmlns:xlink="http://www.w3.org/1999/xlink">
    <!-- Generator: Sketch 52.2 (67145) - http://www.bohemiancoding.com/sketch -->
    <title>coffee-cup</title>
    <desc>Created with Sketch.</desc>
    <g id="Symbols" stroke="none" stroke-width="1" fill="none" fill-rule="evenodd">
        <g id="coffee-cup" fill="#887C68" fill-rule="nonzero">
            <g id="Shape">
                <path d="M164.243,95.766 L151.201,95.766 L151.89,81.304 C151.968,79.665 151.371,78.065 150.239,76.878 C149.107,75.691 147.537,75.019 145.897,75.019 L13.904,75.019 C12.263,75.019 10.694,75.691 9.562,76.878 C8.43,78.066 7.833,79.665 7.911,81.304 L10.575,137.188 C11.233,150.998 19.692,162.618 31.577,167.897 L6,167.897 C2.687,167.897 0,170.584 0,173.897 C0,177.21 2.687,179.897 6,179.897 L154.647,179.897 C157.96,179.897 160.647,177.21 160.647,173.897 C160.647,170.584 157.96,167.897 154.647,167.897 L128.225,167.897 C137.859,163.617 145.235,155.17 148.035,144.766 L164.243,144.766 C177.752,144.766 188.743,133.775 188.743,120.266 C188.743,106.757 177.752,95.766 164.243,95.766 Z M113.821,158.947 L45.981,158.947 C33.445,158.947 23.158,149.138 22.561,136.616 L20.197,87.017 L139.604,87.017 L137.241,136.616 C136.644,149.138 126.357,158.947 113.821,158.947 Z M164.243,132.766 L149.438,132.766 L150.63,107.753 C150.719,107.757 150.807,107.766 150.897,107.766 L164.243,107.766 C171.136,107.766 176.743,113.373 176.743,120.266 C176.743,127.159 171.136,132.766 164.243,132.766 Z"></path>
                <path d="M62.27,65.184 C63.228,65.75 64.279,66.02 65.317,66.02 C67.369,66.02 69.368,64.966 70.488,63.072 C72.175,60.219 71.229,56.54 68.376,54.854 C65.04,52.882 62.734,49.244 62.05,44.874 C61.338,40.324 62.527,35.792 65.228,32.753 C65.252,32.726 65.276,32.699 65.299,32.671 C65.952,31.909 66.605,31.16 67.252,30.417 C72.802,24.043 78.542,17.454 80.19,7.864 C80.752,4.598 78.559,1.495 75.294,0.934 C72.028,0.373 68.925,2.564 68.364,5.83 C67.285,12.106 63.076,16.939 58.203,22.535 C57.546,23.289 56.884,24.05 56.222,24.822 C51.191,30.51 48.938,38.694 50.195,46.727 C51.433,54.653 55.835,61.38 62.27,65.184 Z"></path>
                <path d="M80.891,51.635 C82.872,56.736 86.406,61.408 90.843,64.79 C91.929,65.618 93.207,66.019 94.476,66.019 C96.284,66.019 98.072,65.205 99.252,63.656 C101.261,61.021 100.753,57.256 98.117,55.247 C95.453,53.216 93.251,50.317 92.077,47.292 C89.738,41.269 91.954,35.267 99.488,27.222 C104.829,21.518 108.243,14.8 109.36,7.792 C109.881,4.52 107.652,1.444 104.379,0.922 C101.107,0.4 98.031,2.63 97.509,5.903 C96.76,10.602 94.479,15.015 90.729,19.02 C86.794,23.221 74.822,36.006 80.891,51.635 Z"></path>
            </g>
        </g>
    </g>
</svg>