<?xml version="1.0" encoding="UTF-8"?>
<svg width="36px" height="36px" viewBox="0 0 512 512" version="1.1" xmlns="http://www.w3.org/2000/svg" xmlns:xlink="http://www.w3.org/1999/xlink">
    <!-- Generator: Sketch 52.2 (67145) - http://www.bohemiancoding.com/sketch -->
    <title>cutlery</title>
    <desc>Created with Sketch.</desc>
    <g id="Symbols" stroke="none" stroke-width="1" fill="none" fill-rule="evenodd">
        <g id="cutlery" fill="#887C68" fill-rule="nonzero">
            <g id="Shape">
                <path d="M141.247,31.99 C125.777,11.362 104.892,0.003 82.44,0.003 C59.989,0.003 39.105,11.363 23.634,31.989 C8.921,51.606 0.819,77.505 0.819,104.916 C0.819,132.328 8.921,158.226 23.635,177.843 C32.24,189.316 42.523,197.911 53.815,203.289 L36.546,462.948 C35.704,475.601 40.191,488.169 48.855,497.428 C57.52,506.689 69.764,512.001 82.446,512.001 C95.125,512.001 107.363,506.692 116.025,497.436 C124.689,488.176 129.176,475.606 128.332,462.95 L111.063,203.294 C122.357,197.915 132.641,189.32 141.247,177.845 C155.959,158.228 164.063,132.328 164.063,104.918 C164.063,77.508 155.961,51.607 141.247,31.99 Z M98.874,481.389 C94.574,485.985 88.739,488.516 82.445,488.516 C76.146,488.516 70.307,485.983 66.003,481.384 C61.701,476.784 59.561,470.792 59.978,464.509 L76.932,209.575 C78.758,209.728 80.591,209.833 82.44,209.833 C84.288,209.833 86.12,209.727 87.945,209.575 L104.899,464.509 C105.316,470.795 103.178,476.79 98.874,481.389 Z M82.44,186.346 C78.233,186.346 74.132,185.701 70.176,184.507 C69.848,184.386 69.516,184.275 69.176,184.183 C43.493,175.752 24.304,143.424 24.304,104.917 C24.304,60.018 50.384,23.488 82.44,23.488 C114.497,23.488 140.578,60.017 140.578,104.917 C140.578,149.817 114.498,186.346 82.44,186.346 Z"></path>
                <path d="M511.18,305.92 L511.18,13.222 L511.081,13.265 C511.42,10.678 510.907,7.962 509.428,5.569 C506.018,0.053 498.783,-1.654 493.264,1.756 C445.359,31.373 416.755,82.672 416.746,138.985 C416.746,138.993 416.745,139 416.745,139.007 L416.745,292.788 C416.745,306.281 427.528,317.271 440.914,317.679 L440.914,476.7 C440.914,496.073 456.675,511.834 476.048,511.834 C495.421,511.834 511.183,496.073 511.183,476.7 L511.183,305.979 C511.182,305.959 511.18,305.94 511.18,305.92 Z M441.675,294.235 C440.875,294.234 440.231,293.588 440.231,292.79 L440.231,139.028 C440.231,139.023 440.232,139.019 440.232,139.014 C440.232,98.393 457.645,60.825 487.694,34.875 L487.694,294.235 L441.675,294.235 Z M487.697,476.702 C487.697,483.125 482.472,488.351 476.047,488.351 C469.624,488.351 464.398,483.126 464.398,476.702 L464.398,317.721 L487.697,317.721 L487.697,476.702 Z"></path>
                <path d="M332.799,0.003 C326.314,0.003 321.056,5.26 321.056,11.746 L321.056,145.146 L291.136,145.146 L291.136,11.746 C291.136,5.261 285.878,0.003 279.393,0.003 C272.908,0.003 267.65,5.26 267.65,11.746 L267.65,145.146 L237.73,145.146 L237.73,11.746 C237.73,5.261 232.472,0.003 225.987,0.003 C219.502,0.003 214.244,5.26 214.244,11.746 L214.244,181.73 C214.244,200.87 229.817,216.444 248.958,216.444 L251.047,216.444 L234.572,464.094 C233.745,476.446 238.123,488.718 246.585,497.764 C255.048,506.813 267.005,512.002 279.392,512.002 C291.777,512.002 303.734,506.813 312.198,497.765 C320.659,488.72 325.037,476.447 324.211,464.099 L307.735,216.444 L309.828,216.444 C328.97,216.444 344.543,200.871 344.543,181.73 L344.543,11.745 C344.541,5.26 339.283,0.003 332.799,0.003 Z M295.045,481.72 C290.947,486.102 285.387,488.515 279.391,488.515 C273.395,488.515 267.835,486.102 263.737,481.72 C259.641,477.341 257.605,471.638 258.005,465.657 L274.583,216.442 L284.198,216.442 L300.777,465.66 C301.177,471.638 299.142,477.341 295.045,481.72 Z M321.055,181.729 C321.056,187.921 316.019,192.957 309.827,192.957 L263.205,192.957 C263.19,192.958 263.174,192.956 263.159,192.957 L248.959,192.957 C242.767,192.957 237.731,187.921 237.731,181.729 L237.731,168.629 L321.055,168.629 L321.055,181.729 Z"></path>
            </g>
        </g>
    </g>
</svg>