<?xml version="1.0" encoding="UTF-8"?>
<svg width="34px" height="34px" viewBox="0 0 68 68" version="1.1" xmlns="http://www.w3.org/2000/svg" xmlns:xlink="http://www.w3.org/1999/xlink">
    <!-- Generator: Sketch 52.2 (67145) - http://www.bohemiancoding.com/sketch -->
    <title>hot-stones</title>
    <desc>Created with Sketch.</desc>
    <g id="Symbols" stroke="none" stroke-width="1" fill="none" fill-rule="evenodd">
        <g id="hot-stones" fill="#887C68" fill-rule="nonzero">
            <g>
                <path d="M5.16375,55.3581094 C3.60851563,58.3024297 3.58407813,61.0808672 5.25140625,62.7484609 C6.92139062,64.4185781 9.79173438,64.3837812 12.7715156,62.8265547 C13.7526016,66.0141875 15.7017578,68 18.0625,68 C20.4208516,68 22.3684141,66.0181719 23.3504297,62.83625 C26.2950156,64.3918828 29.0737188,64.4157891 30.7407813,62.7484609 C31.4749687,62.0141406 31.8807109,61.0642656 31.9726172,59.9798516 C32.6288438,60.0133203 33.3048594,60.03125 34,60.03125 C40.8197891,60.03125 49.1311953,58.4122656 55.6905391,55.8059531 C61.0215,53.6879922 68,49.7999062 68,44.09375 C68,38.3858672 61.0175156,34.4979141 55.6905391,32.3815469 C53.8631719,31.6554609 51.8995391,31.0062734 49.8702969,30.4471328 C53.5875859,28.8367812 56.046875,25.9273906 56.046875,22.046875 C56.046875,18.1627734 53.5741719,15.3184609 49.9254141,13.7575156 C53.9884141,12.2880781 56.046875,10.389125 56.046875,8.1015625 C56.046875,5.56152344 53.5104219,3.47782812 48.5080391,1.90825 C44.6997734,0.713335938 40.0209219,0 35.9921875,0 C31.9355625,0 28.9775625,0.719578125 26.9491172,2.19990625 C25.0453828,3.58925781 24.0390625,5.62992187 24.0390625,8.1015625 C24.0390625,10.5163594 25.01125,12.5029688 26.8483125,13.8603125 C26.0961953,14.0672344 25.3642656,14.2882344 24.6647422,14.5259688 C19.0422578,16.4379375 16.0703125,19.0386719 16.0703125,22.046875 C16.0703125,25.0440547 19.0176875,27.6580703 24.5934219,29.6088203 C22.7165156,30.3272031 21.1591562,31.3147969 19.9076641,32.5769141 C19.3315234,32.2920313 18.71275,32.140625 18.0625,32.140625 C15.7017578,32.140625 13.7527344,34.1261719 12.7716484,37.3138047 C9.79146875,35.7565781 6.92125781,35.7219141 5.25153906,37.3920313 C3.58407812,39.0594922 3.60838281,41.8379297 5.16361719,44.7823828 C1.98182813,45.7643984 0,47.7119609 0,50.0703125 C0,52.4286641 1.9815625,54.3759609 5.16375,55.3581094 Z M35.9921875,3.984375 C39.3593828,3.984375 43.3469453,4.55560156 46.6590234,5.51238281 C50.3165469,6.56890625 51.7007187,7.66367969 52.0152187,8.09864062 C51.6966016,8.52709375 50.3060547,9.59995312 46.6537109,10.6192891 C43.3635469,11.5376875 39.3779766,12.0859375 35.9921875,12.0859375 C28.0234375,12.0859375 28.0234375,9.19128906 28.0234375,8.1015625 C28.0234375,7.08328906 28.0234375,3.984375 35.9921875,3.984375 Z M20.0546875,22.046875 C20.0546875,21.3723203 21.6545469,19.7581172 25.9475781,18.2982422 C30.0500234,16.9031797 35.2945234,16.0703125 39.9765625,16.0703125 C47.5443516,16.0703125 52.0625,18.3046172 52.0625,22.046875 C52.0625,25.8724062 47.5443516,28.15625 39.9765625,28.15625 C35.32175,28.15625 30.0822969,27.3002734 25.9607266,25.8664297 C21.6581328,24.3696328 20.0546875,22.7292656 20.0546875,22.046875 Z M34,32.140625 C47.7454297,32.140625 64.015625,38.6198828 64.015625,44.09375 C64.015625,49.5676172 47.7454297,56.046875 34,56.046875 C32.9837187,56.046875 32.0175078,56.0063672 31.1110625,55.9280078 C31.0232734,55.7388828 30.9292422,55.5488281 30.8284375,55.3581094 C34.010625,54.3759609 35.9921875,52.4286641 35.9921875,50.0703125 C35.9921875,47.7119609 34.0103594,45.7643984 30.8285703,44.7823828 C32.3839375,41.8379297 32.4082422,39.059625 30.7407812,37.3922969 C29.0735859,35.7247031 26.2954141,35.7484766 23.3504297,37.304375 C23.1484219,36.6500078 22.9049766,36.0474375 22.6262031,35.5013125 C24.7906484,33.2428359 28.5294531,32.140625 34,32.140625 Z M8.67517969,48.1436016 L12.4299219,47.7923125 L10.0234922,44.8887656 C7.95427344,42.3920234 7.82385156,40.4542891 8.06769531,40.2104453 C8.36678906,39.9675312 10.3838125,40.0945 12.8809531,42.1641172 L15.7845,44.5705469 L16.1357891,40.8158047 C16.4379375,37.5872656 17.7159922,36.125 18.0625,36.125 C18.4090078,36.125 19.6870625,37.5872656 19.9892109,40.8158047 L20.3405,44.5705469 L23.2440469,42.1641172 C25.7409219,40.0947656 27.6783906,39.9643438 27.9232969,40.2093828 C28.1683359,40.4542891 28.0379141,42.3920234 25.9686953,44.8887656 L23.5622656,47.7923125 L27.3170078,48.1436016 C30.5455469,48.44575 32.0078125,49.7238047 32.0078125,50.0703125 C32.0078125,50.4168203 30.5455469,51.6947422 27.316875,51.9970234 L23.5625313,52.3484453 L25.9686953,55.2517266 C28.0379141,57.7484688 28.1682031,59.6862031 27.9231641,59.9312422 C27.6786563,60.1762813 25.7407891,60.0457266 23.2440469,57.9762422 L20.3405,55.5698125 L19.9892109,59.3245547 C19.6870625,62.5533594 18.4090078,64.015625 18.0625,64.015625 C17.7159922,64.015625 16.4379375,62.5533594 16.1357891,59.3245547 L15.7845,55.5698125 L12.8809531,57.9762422 C10.3838125,60.0458594 8.36732031,60.1726953 8.06902344,59.9312422 C7.82398438,59.6862031 7.95427344,57.7483359 10.0234922,55.2517266 L12.4296563,52.3484453 L8.6753125,51.9970234 C5.44664063,51.6947422 3.984375,50.4168203 3.984375,50.0703125 C3.984375,49.7238047 5.44664063,48.44575 8.67517969,48.1436016 Z" id="Shape"></path>
                <polygon id="Rectangle-path" points="16 48 20 48 20 52 16 52"></polygon>
            </g>
        </g>
    </g>
</svg>