<?xml version="1.0" encoding="UTF-8"?>
<svg width="41px" height="41px" viewBox="0 0 41 41" version="1.1" xmlns="http://www.w3.org/2000/svg" xmlns:xlink="http://www.w3.org/1999/xlink">
    <!-- Generator: Sketch 52.2 (67145) - http://www.bohemiancoding.com/sketch -->
    <title>Pharmacy</title>
    <desc>Created with Sketch.</desc>
    <g id="Page-1" stroke="none" stroke-width="1" fill="none" fill-rule="evenodd">
        <g id="05-Content-pages" transform="translate(-1145.000000, -2513.000000)" fill="#887C68" fill-rule="nonzero">
            <g id="Pharmacy" transform="translate(1145.000000, 2513.000000)">
                <path d="M20.5,0 C9.18795181,0 0,9.18795181 0,20.5 C0,31.8120482 9.18795181,41 20.5,41 C31.8120482,41 41,31.8120482 41,20.5 C41,9.18795181 31.8120482,0 20.5,0 Z M20.5,39.2216867 C10.1759036,39.2216867 1.77831325,30.8240964 1.77831325,20.5 C1.77831325,10.1759036 10.1759036,1.77831325 20.5,1.77831325 C30.8240964,1.77831325 39.2216867,10.1759036 39.2216867,20.5 C39.2216867,30.8240964 30.8240964,39.2216867 20.5,39.2216867 Z" id="Shape"></path>
                <path d="M32.0769231,16.3846154 L25.6153846,16.3846154 L25.6153846,9.92307692 C25.6153846,9.41025641 25.2051282,9 24.6923077,9 L17.3076923,9 C16.7948718,9 16.3846154,9.41025641 16.3846154,9.92307692 L16.3846154,16.3846154 L9.92307692,16.3846154 C9.41025641,16.3846154 9,16.7948718 9,17.3076923 L9,24.6923077 C9,25.2051282 9.41025641,25.6153846 9.92307692,25.6153846 L16.3846154,25.6153846 L16.3846154,32.0769231 C16.3846154,32.5897436 16.7948718,33 17.3076923,33 L24.6923077,33 C25.2051282,33 25.6153846,32.5897436 25.6153846,32.0769231 L25.6153846,25.6153846 L32.0769231,25.6153846 C32.5897436,25.6153846 33,25.2051282 33,24.6923077 L33,17.3076923 C32.9487179,16.7948718 32.5384615,16.3846154 32.0769231,16.3846154 Z M31.2051282,23.7692308 L31.1538462,23.7692308 L24.6923077,23.7692308 C24.1794872,23.7692308 23.7692308,24.1794872 23.7692308,24.6923077 L23.7692308,31.1538462 L18.2307692,31.1538462 L18.2307692,24.6923077 C18.2307692,24.1794872 17.8205128,23.7692308 17.3076923,23.7692308 L10.8461538,23.7692308 L10.8461538,18.2307692 L17.3076923,18.2307692 C17.8205128,18.2307692 18.2307692,17.8205128 18.2307692,17.3076923 L18.2307692,10.8461538 L23.8205128,10.8461538 L23.8205128,17.3076923 C23.8205128,17.8205128 24.2307692,18.2307692 24.7435897,18.2307692 L31.2051282,18.2307692 L31.2051282,23.7692308 Z" id="Shape"></path>
            </g>
        </g>
    </g>
</svg>