<?xml version="1.0" encoding="UTF-8"?>
<svg width="38px" height="31px" viewBox="0 0 38 31" version="1.1" xmlns="http://www.w3.org/2000/svg" xmlns:xlink="http://www.w3.org/1999/xlink">
    <!-- Generator: Sketch 52.2 (67145) - http://www.bohemiancoding.com/sketch -->
    <title>Shape</title>
    <desc>Created with Sketch.</desc>
    <g id="Page-1" stroke="none" stroke-width="1" fill="none" fill-rule="evenodd">
        <g id="05-Content-pages" transform="translate(-1001.000000, -2518.000000)" fill="#887C68" fill-rule="nonzero">
            <g id="drycleaner" transform="translate(1001.000000, 2518.000000)">
                <path d="M37.7557626,9.67592309 L32.4458418,2.67753179 C31.1546591,0.97585305 29.2093785,0 27.108667,0 L23.6062699,0 C23.1208169,0 22.6870641,0.311431636 22.5204013,0.779766465 C21.9824223,2.29095625 20.5676877,3.30633194 19,3.30633194 C17.4323123,3.30633194 16.0177429,2.29095625 15.4795987,0.779766465 C15.3129359,0.311431636 14.8791831,0 14.3937301,0 L10.8911678,0 C8.7906215,0 6.84517569,0.97585305 5.55399299,2.67770142 L0.244237434,9.67592309 C0.0134862208,9.98006085 -0.0591913268,10.3802064 0.0494946421,10.7493106 C0.158180611,11.1184147 0.434520468,11.4103395 0.790805628,11.5321303 L8.15072873,14.0502145 L8.15072873,29.8126245 C8.15072873,30.468395 8.66839108,31 9.30696244,31 L28.6930376,31 C29.3316089,31 29.8492713,30.468395 29.8492713,29.8126245 L29.8492713,14.0502145 L37.2091944,11.5321303 C37.5654795,11.4103395 37.8418194,11.1184147 37.9505054,10.7493106 C38.0591913,10.380376 37.9865138,9.98006085 37.7557626,9.67592309 Z M26.8060641,27.6946858 C26.2277821,27.9616757 25.6496653,28.11807 25.0713832,28.11807 C24.4931012,28.11807 23.9149843,27.9616757 23.3367023,27.6946858 C22.7584203,27.4276959 22.1803034,27.0501105 21.6020214,26.6725251 C21.0237393,26.2949397 20.4456225,25.9173543 19.8673405,25.6503644 C19.2890584,25.3833746 18.7109416,25.2269802 18.1326595,25.2269802 C17.5543775,25.2269802 16.9762607,25.3833746 16.3979786,25.6503644 C15.8196966,25.9173543 15.2414146,26.2949397 14.6632977,26.6725251 C14.0850157,27.0501105 13.5068988,27.4276959 12.9286168,27.6946858 C12.3503347,27.9616757 11.7722179,28.11807 11.1939359,28.11807 C10.9504661,28.11807 10.7068311,28.0888945 10.4633613,28.0368196 L10.4633613,25.0760139 C11.4337718,25.2363096 12.3744505,25.0805938 13.4026726,24.6058132 C14.056275,24.3040502 14.6791546,23.8974589 15.2838649,23.5027414 C15.8419954,23.1382171 16.3694031,22.7938782 16.8721996,22.5616615 C17.3370056,22.3470857 17.7494507,22.2427663 18.1328247,22.2427663 C18.5161988,22.2427663 18.9286439,22.3470857 19.3932846,22.5616615 C19.8957508,22.7937086 20.4233237,23.1380475 20.9822801,23.5032502 C21.5851734,23.89695 22.2087137,24.3040502 22.8626465,24.6058132 C23.6318722,24.9610081 24.3543531,25.1336864 25.0715484,25.1336864 C25.7887436,25.1336864 26.5113897,24.9610081 27.2802851,24.6059828 C27.366342,24.5662906 27.4517381,24.5245628 27.5368038,24.4813084 L27.5368038,27.3062444 C27.2931689,27.449408 27.0496991,27.5822244 26.8060641,27.6946858 Z M27.5368038,21.7478003 C27.1185776,22.0168257 26.71786,22.2615947 26.3320083,22.439701 C25.8673675,22.6542767 25.4549225,22.7585962 25.0715484,22.7585962 C24.6881743,22.7585962 24.2757293,22.6542767 23.8109233,22.439701 C23.3087875,22.2078235 22.7813798,21.8634846 22.2225885,21.4986211 C21.6195301,21.1049213 20.9959897,20.6976515 20.3415615,20.3955493 C18.8034403,19.6851594 17.4627047,19.6851594 15.9237576,20.3955493 C15.268999,20.6979908 14.6456238,21.1050909 14.0409136,21.4999781 C13.4831134,21.8641631 12.9562012,22.2081628 12.4543958,22.4398706 C11.989755,22.6544464 11.5773099,22.7587658 11.1939359,22.7587658 C10.9626891,22.7587658 10.7207059,22.7200913 10.4633613,22.6429119 L10.4633613,19.7167097 C11.4336066,19.8770054 12.373955,19.7212896 13.4026726,19.2463394 C14.0566054,18.9444067 14.6799805,18.5373066 15.2841952,18.1429283 C15.8424909,17.778404 16.3700638,17.4338955 16.8720344,17.2021876 C17.3370056,16.9874423 17.7494507,16.8831229 18.1326595,16.8831229 C18.5160336,16.8831229 18.9283135,16.9874423 19.3932846,17.2021876 C19.8949249,17.4337258 20.4218371,17.7777255 20.9816194,18.1430979 C21.5846779,18.5369673 22.2082182,18.9440675 22.8626465,19.2463394 C23.6320374,19.6015343 24.3545183,19.774043 25.0715484,19.774043 C25.7885785,19.774043 26.5110594,19.6013647 27.2802851,19.2463394 C27.366342,19.2066471 27.4517381,19.1649193 27.5368038,19.1218346 L27.5368038,21.7478003 Z M29.8492713,11.5472269 L29.8492713,9.80178489 C29.8492713,9.14601436 29.3316089,8.61440938 28.6930376,8.61440938 C28.0544662,8.61440938 27.5368038,9.14601436 27.5368038,9.80178489 L27.5368038,16.3883265 C27.1185776,16.6573519 26.71786,16.9021209 26.3321735,17.0802272 C25.8672024,17.2948029 25.4549225,17.3991223 25.0715484,17.3991223 C24.6883395,17.3991223 24.2758944,17.2948029 23.8109233,17.0802272 C23.3084572,16.8481801 22.7810494,16.5038412 22.2204412,16.1376207 C21.6180435,15.7444297 20.9951639,15.3376688 20.3415615,15.0360754 C18.8031099,14.3256856 17.4627047,14.3256856 15.9239228,15.0360754 C15.26999,15.3380081 14.6464497,15.7451082 14.0420698,16.1396562 C13.4837741,16.5041804 12.9563664,16.8485193 12.4543958,17.0802272 C11.9894247,17.2948029 11.5771447,17.3991223 11.1937707,17.3991223 C10.9626891,17.3991223 10.7205407,17.3604478 10.4631962,17.2832684 L10.4631962,9.80195452 C10.4631962,9.14618398 9.9455338,8.614579 9.30696244,8.614579 C8.66839108,8.614579 8.15072873,9.14618398 8.15072873,9.80195452 L8.15072873,11.5473965 L3.07387168,9.81043577 L7.37819944,4.1374948 C8.22819639,3.01729081 9.50847746,2.37492066 10.891333,2.37492066 L13.6466379,2.37492066 C14.6864224,4.38192453 16.7455094,5.6812526 19,5.6812526 C21.2544906,5.6812526 23.3135776,4.38192453 24.3535273,2.37492066 L27.1088322,2.37492066 C28.4915225,2.37492066 29.7719688,3.01729081 30.6219657,4.13732518 L34.9264587,9.81043577 L29.8492713,11.5472269 Z" id="Shape"></path>
            </g>
        </g>
    </g>
</svg>