<?xml version="1.0" encoding="UTF-8"?>
<svg width="36px" height="34px" viewBox="0 0 109 101" version="1.1" xmlns="http://www.w3.org/2000/svg" xmlns:xlink="http://www.w3.org/1999/xlink">
    <!-- Generator: Sketch 52.2 (67145) - http://www.bohemiancoding.com/sketch -->
    <title>shopping-cart</title>
    <desc>Created with Sketch.</desc>
    <g id="Symbols" stroke="none" stroke-width="1" fill="none" fill-rule="evenodd">
        <g id="shopping-cart" fill="#887C68" fill-rule="nonzero">
            <g id="Shape">
                <path d="M45.5,82 C40.261698,82 36,86.261698 36,91.5 C36,96.738302 40.261698,101 45.5,101 C50.738302,101 55,96.738302 55,91.5 C54.999789,86.261698 50.738091,82 45.5,82 Z M45.5,95.6952408 C43.1864465,95.6952408 41.3043372,93.8129206 41.3043372,91.499578 C41.3043372,89.1860246 43.1866575,87.3039153 45.5,87.3039153 C47.8133425,87.3039153 49.6956628,89.1862355 49.6956628,91.499578 C49.6956628,93.8133425 47.8133425,95.6952408 45.5,95.6952408 Z"></path>
                <path d="M79.5,82 C74.261698,82 70,86.261698 70,91.5 C70,96.738302 74.261698,101 79.5,101 C84.738302,101 89,96.738302 89,91.5 C88.999789,86.261698 84.738091,82 79.5,82 Z M79.5,95.6952408 C77.1864465,95.6952408 75.3043372,93.8129206 75.3043372,91.499578 C75.3043372,89.1860246 77.1866575,87.3039153 79.5,87.3039153 C81.8135535,87.3039153 83.6956628,89.1862355 83.6956628,91.499578 C83.6956628,93.8133425 81.8133425,95.6952408 79.5,95.6952408 Z"></path>
                <path d="M82.3056588,31 L43.6943412,31 C42.2062487,31 41,32.1192427 41,33.5 C41,34.8807573 42.206463,36 43.6943412,36 L82.3056588,36 C83.7937513,36 85,34.8807573 85,33.5 C85,32.1190438 83.7937513,31 82.3056588,31 Z"></path>
                <path d="M80.2921009,45 L45.7081145,45 C44.212415,45 43,46.1192427 43,47.5 C43,48.8807573 44.212415,50 45.7081145,50 L80.2918855,50 C81.787585,50 83,48.8807573 83,47.5 C83,46.1194416 81.787585,45 80.2921009,45 Z"></path>
                <path d="M107.795423,19.2041808 C106.774825,17.957382 105.262449,17.2424434 103.646395,17.2424434 L20.2839029,17.2424434 L18.6003627,9.10795012 C18.24888,7.41108326 17.0860706,5.98629146 15.4891769,5.29614469 L3.7425027,0.221224447 C2.38638847,-0.36509306 0.810358076,0.254280295 0.222140869,1.60363696 C-0.366715011,2.95341741 0.25556472,4.52229881 1.61104028,5.10776873 L13.3579274,10.1829009 L26.3072216,72.7476618 C26.8173079,75.2115939 29.0220047,77 31.5496569,77 L95.6651196,77 C97.1432203,77 98.3413696,75.8074467 98.3413696,74.3362496 C98.3413696,72.8650525 97.1432203,71.6724992 95.6651196,71.6724992 L31.5498698,71.6724992 L29.9746909,64.0620259 L96.1607294,64.0620259 C98.6881686,64.0620259 100.893078,62.2736198 101.402952,59.8096877 L108.88883,23.6442592 C109.214766,22.0694447 108.816234,20.4507677 107.795423,19.2041808 Z M96.1607294,58.7349489 L28.8721296,58.7349489 L21.3866771,22.5697323 L103.646182,22.5697323 L96.1607294,58.7349489 Z"></path>
            </g>
        </g>
    </g>
</svg>